<svg width="97" height="121" viewBox="0 0 97 121" fill="none" xmlns="http://www.w3.org/2000/svg">
<rect x="58.0001" y="31" width="10" height="19" rx="4" fill="#A0C878"/>
<rect x="37.0001" y="34.5" width="23" height="12" fill="#A0C878"/>
<path d="M43.5 44.5C43.5 45.6046 42.6046 46.5 41.5 46.5H29C27.8954 46.5 27 45.6046 27 44.5V40.5706C27 39.9655 27.5258 39.5 28.1309 39.5V39.5C31.3888 39.5 34.2038 38.0116 35.544 35.8511C36.0096 35.1006 36.7621 34.5 37.6453 34.5H41.5C42.6046 34.5 43.5 35.3954 43.5 36.5V44.5Z" fill="#A0C878"/>
<rect x="35.9999" y="42.5" width="11" height="57.5" rx="4" fill="#A0C878"/>
<path d="M54.2 100V88.224H64.056V100H54.2Z" fill="#A0C878"/>
<rect x="47" y="60" width="8" height="6" fill="#A0C878"/>
<rect x="47" y="60" width="12" height="6" rx="1" fill="#A0C878"/>
<path d="M48.128 120.64C40.8747 120.64 34.7307 119.403 29.696 116.928C24.7467 114.453 20.736 111.083 17.664 106.816C14.6773 102.549 12.4587 97.6853 11.008 92.224C9.64267 86.7627 8.96 81.088 8.96 75.2V29.12H23.296V75.2C23.296 79.3813 23.7227 83.4347 24.576 87.36C25.4293 91.2 26.7947 94.656 28.672 97.728C30.5493 100.8 33.0667 103.232 36.224 105.024C39.4667 106.816 43.4347 107.712 48.128 107.712C52.9067 107.712 56.8747 106.816 60.032 105.024C63.2747 103.147 65.792 100.672 67.584 97.6C69.4613 94.4427 70.8267 90.944 71.68 87.104C72.5333 83.264 72.96 79.296 72.96 75.2V29.12H87.424V75.2C87.424 81.4293 86.656 87.3173 85.12 92.864C83.6693 98.3253 81.3653 103.147 78.208 107.328C75.136 111.424 71.1253 114.667 66.176 117.056C61.2267 119.445 55.2107 120.64 48.128 120.64Z" fill="#649132"/>
</svg>
